<svg><symbol xmlns="http://www.w3.org/2000/svg" fill="none" viewBox="0 0 16 16" id="facebook"><path fill="#1877F2" d="M15 8a7 7 0 0 0-7-7 7 7 0 0 0-1.094 13.915v-4.892H5.13V8h1.777V6.458c0-1.754 1.045-2.724 2.644-2.724.766 0 1.567.137 1.567.137v1.723h-.883c-.87 0-1.14.54-1.14 1.093V8h1.941l-.31 2.023H9.094v4.892A7 7 0 0 0 15 8"></path><path fill="#fff" d="M10.725 10.023 11.035 8H9.094V6.687c0-.553.27-1.093 1.14-1.093h.883V3.87s-.801-.137-1.567-.137c-1.6 0-2.644.97-2.644 2.724V8H5.13v2.023h1.777v4.892a7 7 0 0 0 2.188 0v-4.892z"></path></symbol><symbol xmlns="http://www.w3.org/2000/svg" viewBox="0 0 24 24" id="instagram"><path d="M17.34 5.46a1.2 1.2 0 1 0 1.2 1.2 1.2 1.2 0 0 0-1.2-1.2m4.6 2.42a7.6 7.6 0 0 0-.46-2.43 4.9 4.9 0 0 0-1.16-1.77 4.7 4.7 0 0 0-1.77-1.15 7.3 7.3 0 0 0-2.43-.47C15.06 2 14.72 2 12 2s-3.06 0-4.12.06a7.3 7.3 0 0 0-2.43.47 4.8 4.8 0 0 0-1.77 1.15 4.7 4.7 0 0 0-1.15 1.77 7.3 7.3 0 0 0-.47 2.43C2 8.94 2 9.28 2 12s0 3.06.06 4.12a7.3 7.3 0 0 0 .47 2.43 4.7 4.7 0 0 0 1.15 1.77 4.8 4.8 0 0 0 1.77 1.15 7.3 7.3 0 0 0 2.43.47C8.94 22 9.28 22 12 22s3.06 0 4.12-.06a7.3 7.3 0 0 0 2.43-.47 4.7 4.7 0 0 0 1.77-1.15 4.85 4.85 0 0 0 1.16-1.77 7.6 7.6 0 0 0 .46-2.43c0-1.06.06-1.4.06-4.12s0-3.06-.06-4.12M20.14 16a5.6 5.6 0 0 1-.34 1.86 3.06 3.06 0 0 1-.75 1.15 3.2 3.2 0 0 1-1.15.75 5.6 5.6 0 0 1-1.86.34c-1 .05-1.37.06-4 .06s-3 0-4-.06a5.7 5.7 0 0 1-1.94-.3 3.3 3.3 0 0 1-1.1-.75 3 3 0 0 1-.74-1.15 5.5 5.5 0 0 1-.4-1.9c0-1-.06-1.37-.06-4s0-3 .06-4a5.5 5.5 0 0 1 .35-1.9A3 3 0 0 1 5 5a3.1 3.1 0 0 1 1.1-.8A5.7 5.7 0 0 1 8 3.86c1 0 1.37-.06 4-.06s3 0 4 .06a5.6 5.6 0 0 1 1.86.34 3.06 3.06 0 0 1 1.19.8 3.1 3.1 0 0 1 .75 1.1 5.6 5.6 0 0 1 .34 1.9c.05 1 .06 1.37.06 4s-.01 3-.06 4M12 6.87A5.13 5.13 0 1 0 17.14 12 5.12 5.12 0 0 0 12 6.87m0 8.46A3.33 3.33 0 1 1 15.33 12 3.33 3.33 0 0 1 12 15.33"></path></symbol><symbol xmlns="http://www.w3.org/2000/svg" preserveAspectRatio="xMinYMin" viewBox="-2 -2 24 24" id="whatsapp"><path d="M9.516.012C4.206.262.017 4.652.033 9.929a9.8 9.8 0 0 0 1.085 4.465L.06 19.495a.387.387 0 0 0 .47.453l5.034-1.184a10 10 0 0 0 4.284 1.032c5.427.083 9.951-4.195 10.12-9.58C20.15 4.441 15.351-.265 9.516.011zm6.007 15.367a7.78 7.78 0 0 1-5.52 2.27 7.8 7.8 0 0 1-3.474-.808l-.701-.347-3.087.726.65-3.131-.346-.672A7.6 7.6 0 0 1 2.197 9.9c0-2.07.812-4.017 2.286-5.48a7.85 7.85 0 0 1 5.52-2.271c2.086 0 4.046.806 5.52 2.27a7.67 7.67 0 0 1 2.287 5.48c0 2.052-.825 4.03-2.287 5.481z"></path><path d="m14.842 12.045-1.931-.55a.72.72 0 0 0-.713.186l-.472.478a.71.71 0 0 1-.765.16c-.913-.367-2.835-2.063-3.326-2.912a.69.69 0 0 1 .056-.774l.412-.53a.71.71 0 0 0 .089-.726L7.38 5.553a.723.723 0 0 0-1.125-.256c-.539.453-1.179 1.14-1.256 1.903-.137 1.343.443 3.036 2.637 5.07 2.535 2.349 4.566 2.66 5.887 2.341.75-.18 1.35-.903 1.727-1.494a.713.713 0 0 0-.408-1.072"></path></symbol></svg>